<svg width="60" height="60" viewBox="0 0 60 60" fill="none" xmlns="http://www.w3.org/2000/svg">
<g id="fi-rr-feedback-review" clip-path="url(#clip0_450_76)">
<path id="Vector" d="M58.8965 16.8362L55.0072 20.0054L56.6152 24.9058C56.8347 25.5692 56.6127 26.2992 56.0578 26.7259C55.5029 27.1526 54.7409 27.1821 54.1564 26.8023L49.6283 23.8527L45.1768 26.8319C44.9006 27.0169 44.5799 27.1106 44.2618 27.1106C43.9141 27.1106 43.5663 26.9996 43.2753 26.7826C42.7155 26.3634 42.4836 25.6383 42.6933 24.9724L44.2396 20.0128L40.3306 16.8313C39.8053 16.3849 39.6129 15.6574 39.8521 15.0112C40.0889 14.3651 40.7055 13.9335 41.396 13.9335H46.331L48.0771 9.03305C48.3163 8.38936 48.9304 7.9627 49.6185 7.9627C50.3066 7.9627 50.9207 8.38936 51.1599 9.03305L52.906 13.9335H57.8409C58.5315 13.9335 59.148 14.3651 59.3848 15.0137C59.6216 15.6623 59.4243 16.3899 58.8965 16.8362ZM20.6031 9.43258L24.5121 12.614L22.9658 17.5737C22.7561 18.2395 22.9904 18.9646 23.5478 19.3839C23.8388 19.6034 24.1866 19.7119 24.5343 19.7119C24.8524 19.7119 25.1706 19.6206 25.4493 19.4332L29.9008 16.454L34.4289 19.4036C35.0134 19.7834 35.7754 19.7538 36.3303 19.3272C36.8853 18.9005 37.1072 18.1705 36.8877 17.5071L35.2797 12.6066L39.169 9.43751C39.6968 8.99359 39.8916 8.26358 39.6548 7.61496C39.4181 6.96634 38.8015 6.53474 38.111 6.53474H33.176L31.4299 1.63432C31.1907 0.990625 30.5766 0.563965 29.8885 0.563965C29.2004 0.563965 28.5863 0.990625 28.3471 1.63432L26.601 6.53474H21.6661C20.9755 6.53474 20.3614 6.96387 20.1222 7.61249C19.883 8.25865 20.0753 8.98619 20.6006 9.43258H20.6031ZM14.6989 26.7999C15.2834 27.1797 16.0455 27.1501 16.6004 26.7234C17.1553 26.2968 17.3773 25.5668 17.1578 24.9033L15.5498 20.0029L19.439 16.8338C19.9668 16.3899 20.1616 15.6598 19.9249 15.0112C19.6881 14.3626 19.0716 13.931 18.381 13.931H13.4461L11.7 9.03058C11.4607 8.38689 10.8466 7.96023 10.1586 7.96023C9.47048 7.96023 8.85638 8.38689 8.61716 9.03058L6.87105 13.931H1.9361C1.24555 13.931 0.631455 14.3601 0.392229 15.0088C0.153003 15.6549 0.345371 16.3825 0.870681 16.8288L4.77968 20.0103L3.23334 24.9699C3.02371 25.6358 3.25801 26.3609 3.81538 26.7801C4.10639 26.9996 4.45413 27.1082 4.80187 27.1082C5.12002 27.1082 5.43817 27.0169 5.71685 26.8295L10.1684 23.8503L14.6989 26.7999ZM49.473 43.9427L47.897 51.8249C46.9747 56.4367 42.9251 59.7563 38.2244 59.7563H17.5548C13.4683 59.7563 10.1561 56.4441 10.1561 52.3576V42.4926C10.1561 38.406 13.4683 35.0939 17.5548 35.0939H21.1457L26.5542 24.8614C26.9981 23.9933 27.6097 23.3471 28.2361 23.0882C28.759 22.8712 29.2892 22.7626 29.8145 22.7626C31.4965 22.7626 32.8825 23.8626 33.3462 25.5643C33.4004 25.7616 33.4695 26.2178 33.3289 27.0416L31.8985 35.0939H42.2148C46.8834 35.0939 50.3879 39.3654 49.473 43.9427ZM17.5573 54.8238H20.0235V40.0263H17.5573C16.1984 40.0263 15.091 41.1337 15.091 42.4926V52.3576C15.091 53.7165 16.1984 54.8238 17.5573 54.8238ZM44.1237 40.929C43.8475 40.5911 43.2309 40.0263 42.2173 40.0263H24.956V54.8238H38.222C40.5649 54.8238 42.5995 53.1566 43.0583 50.8581L44.6342 42.976C44.834 41.9796 44.3999 41.2669 44.1237 40.929Z" fill="white"/>
</g>
<defs>
<clipPath id="clip0_450_76">
<rect width="59.1899" height="59.1899" fill="white" transform="translate(0.291107 0.566406)"/>
</clipPath>
</defs>
</svg>
