<svg width="51" height="51" viewBox="0 0 51 51" fill="none" xmlns="http://www.w3.org/2000/svg">
<g id="fi-rr-journey" clip-path="url(#clip0_450_54)">
<path id="Vector" d="M2.33543 35.1361C2.33543 32.2167 4.70091 29.8513 7.62024 29.8513C10.5396 29.8513 12.9051 32.2167 12.9051 35.1361C12.9051 38.0554 10.5396 40.4209 7.62024 40.4209C4.70091 40.4209 2.33543 38.0554 2.33543 35.1361ZM7.62024 42.5348C4.06885 42.5348 0.974065 45.0208 0.2659 48.4475C0.0291408 49.5911 0.762672 50.7094 1.90631 50.9461C3.04148 51.1765 4.1682 50.4493 4.40496 49.3057C4.71148 47.8323 6.06228 46.7627 7.62024 46.7627C9.1782 46.7627 10.529 47.8323 10.8355 49.3057C11.0427 50.3056 11.9221 50.9905 12.9029 50.9905C13.0446 50.9905 13.1883 50.9757 13.3342 50.9461C14.4778 50.7094 15.2135 49.5911 14.9746 48.4475C14.2664 45.0208 11.1716 42.5348 7.62024 42.5348ZM42.5 29.8513H23.4747C21.143 29.8513 19.2468 27.9551 19.2468 25.6234C19.2468 23.2918 21.143 21.3956 23.4747 21.3956H25.5886C26.7555 21.3956 27.7025 20.4485 27.7025 19.2816C27.7025 18.1148 26.7555 17.1677 25.5886 17.1677H23.4747C18.8114 17.1677 15.019 20.9601 15.019 25.6234C15.019 30.2867 18.8114 34.0791 23.4747 34.0791H42.5C44.8316 34.0791 46.7278 35.9753 46.7278 38.307C46.7278 40.6386 44.8316 42.5348 42.5 42.5348H21.3607C20.1939 42.5348 19.2468 43.4818 19.2468 44.6487C19.2468 45.8156 20.1939 46.7627 21.3607 46.7627H42.5C47.1633 46.7627 50.9557 42.9703 50.9557 38.307C50.9557 33.6436 47.1633 29.8513 42.5 29.8513ZM32.9937 15.8761L31.1715 21.7211C30.9263 22.5054 31.1989 23.3615 31.8585 23.8541C32.201 24.112 32.6111 24.2409 33.0212 24.2409C33.3974 24.2409 33.7716 24.1331 34.0993 23.9132L39.346 20.402L44.6816 23.8773C45.3707 24.3255 46.2691 24.2895 46.9223 23.7885C47.5755 23.2854 47.8376 22.425 47.5798 21.645L45.6836 15.8698L50.2687 12.1345C50.8902 11.6102 51.1206 10.752 50.8415 9.98672C50.5625 9.22148 49.8353 8.71413 49.0214 8.71413H43.206L41.1471 2.93889C40.8659 2.17999 40.1409 1.67688 39.3312 1.67688C38.5216 1.67688 37.7965 2.17999 37.5154 2.93889L35.4564 8.71413H29.641C28.8292 8.71413 28.1021 9.22148 27.823 9.9846C27.5419 10.7477 27.7681 11.6039 28.3874 12.1302L32.9937 15.8761Z" fill="white"/>
</g>
<defs>
<clipPath id="clip0_450_54">
<rect width="50.7342" height="50.7342" fill="white" transform="translate(0.221497 0.256348)"/>
</clipPath>
</defs>
</svg>
