<svg width="17" height="16" viewBox="0 0 17 16" fill="none" xmlns="http://www.w3.org/2000/svg">
<path d="M11.0921 15.9978V9.81095H13.1714C13.2746 8.9834 13.3715 8.21531 13.4772 7.37041H11.0896C11.0896 6.71258 11.0548 6.11793 11.0995 5.52948C11.1393 5.0104 11.4724 4.71308 12.0081 4.69945C12.5015 4.68706 12.9949 4.69697 13.5369 4.69697V2.49429C12.0963 2.35307 10.6309 2.07556 9.44273 3.23141C8.27813 4.36496 8.64976 5.87884 8.57021 7.34935H6.50699V9.77502H8.58513C8.58513 10.8714 8.58513 11.8972 8.58513 12.9217C8.58513 13.9462 8.58513 14.9324 8.58513 15.9718C8.40615 15.9829 8.28683 15.9965 8.16751 15.9965C5.80724 15.9978 3.44572 16.0002 1.08544 15.9965C0.29993 15.9953 0.00411862 15.6967 0.00411862 14.9076C-0.000852994 10.3028 -0.000852994 5.70044 0.00163281 1.09687C0.00163281 0.302768 0.296201 0.00296566 1.07799 0.00172681C5.7165 -0.000750896 10.3563 -0.000750896 14.9948 0.00296566C15.7418 0.00296566 16.0463 0.310201 16.0475 1.05847C16.0512 5.68186 16.0512 10.3065 16.0475 14.9299C16.0475 15.6843 15.7455 15.9903 15.0047 15.9953C13.722 16.004 12.4406 15.9978 11.0921 15.9978Z" fill="#FF6607"/>
</svg>
