<svg width="47" height="47" viewBox="0 0 47 47" fill="none" xmlns="http://www.w3.org/2000/svg">
<g id="fi-rr-chart-line-up" clip-path="url(#clip0_450_91)">
<path id="Vector" d="M47 45.0417C47 46.1227 46.1227 47 45.0417 47H5.875C2.63592 47 0 44.3641 0 41.125V1.95833C0 0.877333 0.877333 0 1.95833 0C3.03933 0 3.91667 0.877333 3.91667 1.95833V41.125C3.91667 42.204 4.79596 43.0833 5.875 43.0833H45.0417C46.1227 43.0833 47 43.9607 47 45.0417ZM41.125 9.79167H33.2917C32.2107 9.79167 31.3333 10.669 31.3333 11.75C31.3333 12.831 32.2107 13.7083 33.2917 13.7083H40.2692L30.7576 22.9262C30.0193 23.6665 28.7288 23.6665 27.9905 22.9262C27.9102 22.8479 25.5641 21.1774 25.5641 21.1774C23.3355 19.0761 19.5383 19.1545 17.4135 21.2773L8.43258 29.9214C7.65317 30.6714 7.62967 31.911 8.37971 32.6905C8.7655 33.09 9.27663 33.2917 9.79167 33.2917C10.2812 33.2917 10.7708 33.1095 11.1488 32.7453L20.1571 24.0738C20.8954 23.3335 22.186 23.3335 22.9243 24.0738C23.0045 24.1521 25.3506 25.8226 25.3506 25.8226C27.5812 27.9258 31.3745 27.8514 33.5051 25.7168L43.0814 16.4343V23.498C43.0814 24.579 43.9587 25.4564 45.0397 25.4564C46.1207 25.4564 46.998 24.579 46.998 23.498V15.6647C46.998 12.4256 44.3621 9.78971 41.123 9.78971L41.125 9.79167Z" fill="white"/>
</g>
<defs>
<clipPath id="clip0_450_91">
<rect width="47" height="47" fill="white"/>
</clipPath>
</defs>
</svg>
