<svg width="73" height="16" viewBox="0 0 73 16" fill="none" xmlns="http://www.w3.org/2000/svg">
<g id="Icones">
<g id="Insta">
<path id="Vector" d="M16.0518 4.09703V11.9068C16.0257 12.0703 16.0091 12.2361 15.9722 12.3972C15.5634 14.2099 14.4629 15.3721 12.6672 15.8685C12.4331 15.9337 12.1883 15.9573 11.947 16H4.11408C4.06298 15.9905 4.01307 15.9775 3.96196 15.9728C3.52343 15.9242 3.09441 15.8282 2.69629 15.6398C0.973067 14.8271 0.0437162 13.467 0.0175708 11.5644C-0.0157052 9.19018 0.00806336 6.81598 0.0104402 4.44178C0.0104402 3.67289 0.180385 2.93955 0.573755 2.2761C1.45676 0.780971 2.78186 0.0168208 4.5229 0.00734301C6.86292 -0.005689 9.20175 0.00141937 11.5418 0.00734301C11.8424 0.00734301 12.1514 0.0239292 12.4438 0.0879046C14.2609 0.487158 15.422 1.59014 15.9211 3.37671C15.9865 3.6101 16.0103 3.85534 16.053 4.09584L16.0518 4.09703ZM14.6293 8.01848C14.6293 6.85745 14.6293 5.69641 14.6293 4.53538C14.6293 4.1693 14.5925 3.80795 14.4677 3.46083C14.0137 2.18843 12.9156 1.42546 11.5275 1.42309C9.19937 1.42072 6.87005 1.41599 4.54192 1.42902C4.18777 1.43139 3.81698 1.47878 3.48184 1.59014C2.19834 2.0202 1.43418 3.12792 1.4318 4.5105C1.42824 6.83731 1.42467 9.16411 1.43774 11.4909C1.44012 11.8392 1.48766 12.2029 1.59818 12.5323C2.02601 13.8047 3.13363 14.576 4.50983 14.5783C6.85935 14.5842 9.20888 14.5831 11.5584 14.5783C12.6042 14.576 13.4492 14.1601 14.0695 13.3154C14.4689 12.7716 14.6317 12.1508 14.6305 11.4826C14.6293 10.3275 14.6305 9.17122 14.6305 8.01611L14.6293 8.01848Z" fill="white"/>
<path id="Vector_2" d="M12.1644 8.00903C12.1561 10.279 10.2831 12.1378 8.01918 12.1248C5.73977 12.1117 3.8775 10.2434 3.89533 7.98771C3.91316 5.71777 5.7671 3.8767 8.03225 3.88025C10.3057 3.88381 12.1727 5.74857 12.1644 8.00903ZM8.03581 5.30193C6.54671 5.29482 5.32976 6.50324 5.32263 7.99719C5.3155 9.48165 6.5277 10.6948 8.02512 10.7019C9.51422 10.709 10.7312 9.50061 10.7383 8.00666C10.7454 6.5222 9.53323 5.30904 8.03581 5.30193Z" fill="white"/>
<path id="Vector_3" d="M12.3379 2.68124C12.9131 2.68124 13.3909 3.15868 13.3825 3.72498C13.3742 4.29247 12.906 4.75451 12.3391 4.75451C11.7663 4.75451 11.2862 4.27588 11.2945 3.70958C11.3028 3.14091 11.7687 2.68124 12.3379 2.68005V2.68124Z" fill="white"/>
</g>
<g id="WA">
<path id="Vector_4" d="M28 15.9997C28.0971 15.6414 28.1868 15.307 28.2787 14.9734C28.5437 14.0134 28.808 13.0529 29.0775 12.094C29.1127 11.9682 29.1023 11.867 29.0378 11.7497C28.2402 10.3008 27.927 8.7489 28.0986 7.11093C28.4537 3.72647 30.9507 0.929074 34.3057 0.194138C38.7664 -0.782835 42.9746 2.03258 43.8731 6.27925C44.7967 10.6444 42.0477 14.6641 37.9384 15.6569C36.0437 16.1144 34.2056 15.8982 32.4573 15.0293C32.2728 14.9377 32.1171 14.9385 31.9314 14.9878C30.6534 15.3262 29.3736 15.6583 28.0941 15.992C28.0767 15.9964 28.0578 15.9953 28 15.9997V15.9997ZM29.8955 14.1406C29.9952 14.12 30.0548 14.1108 30.1134 14.0958C30.8098 13.9152 31.5074 13.7382 32.2016 13.5492C32.3573 13.5069 32.4777 13.5227 32.6171 13.6054C34.0266 14.443 35.55 14.7314 37.1663 14.464C38.6155 14.2241 39.8605 13.5679 40.8676 12.5034C42.2971 10.992 42.9053 9.18993 42.6659 7.13226C42.481 5.5421 41.7767 4.18884 40.5888 3.10298C39.0447 1.6916 37.2093 1.11005 35.1371 1.39586C33.0704 1.6813 31.474 2.74582 30.3703 4.50444C29.5267 5.84851 29.2431 7.32317 29.4581 8.88684C29.5908 9.85057 29.9355 10.7429 30.4766 11.557C30.5422 11.6555 30.563 11.7449 30.5255 11.8637C30.4344 12.1551 30.3602 12.4519 30.2794 12.7462C30.1549 13.199 30.0304 13.6514 29.8962 14.1403L29.8955 14.1406Z" fill="white"/>
<path id="Vector_5" d="M38.1904 11.7449C37.5848 11.7699 37.0729 11.5466 36.5551 11.3535C35.1208 10.8179 34.0433 9.83138 33.1237 8.6521C32.7042 8.11395 32.3031 7.56183 32.1115 6.89494C31.855 6.00073 32.0137 5.20327 32.686 4.52718C32.8421 4.37012 33.0218 4.28037 33.2423 4.27926C33.4025 4.27853 33.5685 4.26565 33.7205 4.30244C33.8194 4.32634 33.9391 4.41242 33.9799 4.5018C34.2297 5.05319 34.4651 5.61156 34.6897 6.17362C34.7231 6.25675 34.7042 6.39321 34.6545 6.47009C34.5059 6.70036 34.3417 6.92327 34.1604 7.12926C34.0285 7.27933 34.0166 7.40807 34.1167 7.57323C34.7738 8.65872 35.6823 9.45067 36.8731 9.91782C37.0318 9.97998 37.1611 9.95938 37.2694 9.82696C37.4677 9.58493 37.6697 9.34547 37.8628 9.09938C38.0136 8.90737 38.0952 8.8625 38.319 8.96365C38.8735 9.21452 39.4228 9.47715 39.9673 9.74935C40.0362 9.78393 40.1007 9.90384 40.1014 9.98477C40.1055 10.5667 39.9335 11.0629 39.395 11.3859C39.0106 11.6165 38.6126 11.7717 38.19 11.7445L38.1904 11.7449Z" fill="white"/>
</g>
<g id="Facebook">
<path id="Vector_6" d="M67.0921 15.9978V9.81095H69.1714C69.2746 8.9834 69.3715 8.21531 69.4772 7.37041H67.0896C67.0896 6.71258 67.0548 6.11793 67.0995 5.52948C67.1393 5.0104 67.4724 4.71308 68.0081 4.69945C68.5015 4.68706 68.9949 4.69697 69.5369 4.69697V2.49429C68.0963 2.35307 66.6309 2.07556 65.4427 3.23141C64.2781 4.36496 64.6498 5.87884 64.5702 7.34935H62.507V9.77502H64.5851C64.5851 10.8714 64.5851 11.8972 64.5851 12.9217C64.5851 13.9462 64.5851 14.9324 64.5851 15.9718C64.4061 15.9829 64.2868 15.9965 64.1675 15.9965C61.8072 15.9978 59.4457 16.0002 57.0854 15.9965C56.2999 15.9953 56.0041 15.6967 56.0041 14.9076C55.9991 10.3028 55.9991 5.70044 56.0016 1.09687C56.0016 0.302768 56.2962 0.00296566 57.078 0.00172681C61.7165 -0.000750896 66.3563 -0.000750896 70.9948 0.00296566C71.7418 0.00296566 72.0463 0.310201 72.0475 1.05847C72.0512 5.68186 72.0512 10.3065 72.0475 14.9299C72.0475 15.6843 71.7455 15.9903 71.0047 15.9953C69.722 16.004 68.4406 15.9978 67.0921 15.9978Z" fill="white"/>
</g>
</g>
</svg>
