<svg width="17" height="16" viewBox="0 0 17 16" fill="none" xmlns="http://www.w3.org/2000/svg">
<path d="M16.0518 4.09703V11.9068C16.0257 12.0703 16.0091 12.2361 15.9722 12.3972C15.5634 14.2099 14.4629 15.3721 12.6672 15.8685C12.4331 15.9337 12.1883 15.9573 11.947 16H4.11408C4.06298 15.9905 4.01307 15.9775 3.96196 15.9728C3.52343 15.9242 3.09441 15.8282 2.69629 15.6398C0.973067 14.8271 0.0437162 13.467 0.0175708 11.5644C-0.0157052 9.19018 0.00806336 6.81598 0.0104402 4.44178C0.0104402 3.67289 0.180385 2.93955 0.573755 2.2761C1.45676 0.780971 2.78186 0.0168208 4.5229 0.00734301C6.86292 -0.005689 9.20175 0.00141937 11.5418 0.00734301C11.8424 0.00734301 12.1514 0.0239292 12.4438 0.0879046C14.2609 0.487158 15.422 1.59014 15.9211 3.37671C15.9865 3.6101 16.0103 3.85534 16.053 4.09584L16.0518 4.09703ZM14.6293 8.01848C14.6293 6.85745 14.6293 5.69641 14.6293 4.53538C14.6293 4.1693 14.5925 3.80795 14.4677 3.46083C14.0137 2.18843 12.9156 1.42546 11.5275 1.42309C9.19937 1.42072 6.87005 1.41599 4.54192 1.42902C4.18777 1.43139 3.81698 1.47878 3.48184 1.59014C2.19834 2.0202 1.43418 3.12792 1.4318 4.5105C1.42824 6.83731 1.42467 9.16411 1.43774 11.4909C1.44012 11.8392 1.48766 12.2029 1.59818 12.5323C2.02601 13.8047 3.13363 14.576 4.50983 14.5783C6.85935 14.5842 9.20888 14.5831 11.5584 14.5783C12.6042 14.576 13.4492 14.1601 14.0695 13.3154C14.4689 12.7716 14.6317 12.1508 14.6305 11.4826C14.6293 10.3275 14.6305 9.17122 14.6305 8.01611L14.6293 8.01848Z" fill="#FF6607"/>
<path d="M12.1644 8.00891C12.1561 10.2789 10.2831 12.1377 8.01918 12.1247C5.73977 12.1116 3.8775 10.2433 3.89533 7.98759C3.91316 5.71765 5.7671 3.87658 8.03225 3.88013C10.3057 3.88369 12.1727 5.74845 12.1644 8.00891ZM8.03581 5.30181C6.54671 5.2947 5.32976 6.50312 5.32263 7.99706C5.3155 9.48153 6.5277 10.6947 8.02512 10.7018C9.51422 10.7089 10.7312 9.50048 10.7383 8.00654C10.7454 6.52208 9.53323 5.30891 8.03581 5.30181Z" fill="#FF6607"/>
<path d="M12.3379 2.68136C12.9131 2.68136 13.3909 3.15881 13.3825 3.72511C13.3742 4.29259 12.906 4.75464 12.3391 4.75464C11.7663 4.75464 11.2862 4.27601 11.2945 3.7097C11.3028 3.14104 11.7687 2.68136 12.3379 2.68018V2.68136Z" fill="#FF6607"/>
</svg>
