<svg width="50" height="50" viewBox="0 0 50 50" fill="none" xmlns="http://www.w3.org/2000/svg">
<g id="fi-rr-edit" clip-path="url(#clip0_450_62)">
<path id="Vector" d="M38.7803 2.00403L13.5443 27.2401C12.5804 28.1987 11.8163 29.339 11.2961 30.595C10.776 31.851 10.5101 33.1977 10.514 34.5571V37.337C10.514 37.8859 10.732 38.4124 11.1202 38.8006C11.5084 39.1888 12.0349 39.4068 12.5838 39.4068H15.3637C16.7231 39.4107 18.0698 39.1448 19.3258 38.6247C20.5818 38.1045 21.7221 37.3404 22.6807 36.3765L47.9168 11.1405C49.1264 9.9279 49.8057 8.28504 49.8057 6.57227C49.8057 4.85949 49.1264 3.21663 47.9168 2.00403C46.6866 0.828119 45.0503 0.171875 43.3485 0.171875C41.6467 0.171875 40.0105 0.828119 38.7803 2.00403ZM44.9899 8.21369L19.7539 33.4497C18.5868 34.6097 17.0093 35.2628 15.3637 35.2671H14.6537V34.5571C14.658 32.9115 15.3111 31.334 16.4711 30.1669L41.7071 4.93085C42.1492 4.5085 42.7371 4.27282 43.3485 4.27282C43.9599 4.27282 44.5478 4.5085 44.9899 4.93085C45.4245 5.36659 45.6685 5.95687 45.6685 6.57227C45.6685 7.18766 45.4245 7.77794 44.9899 8.21369Z" fill="white"/>
<path id="Vector_2" d="M47.7719 18.6646C47.2229 18.6646 46.6964 18.8827 46.3083 19.2708C45.9201 19.659 45.702 20.1855 45.702 20.7345V31.1274H37.4225C35.7756 31.1274 34.1961 31.7816 33.0316 32.9461C31.867 34.1107 31.2128 35.6901 31.2128 37.337V45.6166H10.514C8.86707 45.6166 7.28762 44.9623 6.12308 43.7978C4.95855 42.6333 4.30432 41.0538 4.30432 39.4069V10.4285C4.30432 8.78162 4.95855 7.20217 6.12308 6.03763C7.28762 4.8731 8.86707 4.21887 10.514 4.21887H29.2299C29.7788 4.21887 30.3053 4.00079 30.6935 3.61261C31.0817 3.22444 31.2997 2.69795 31.2997 2.14899C31.2997 1.60002 31.0817 1.07354 30.6935 0.685357C30.3053 0.297178 29.7788 0.0791016 29.2299 0.0791016L10.514 0.0791016C7.77014 0.0823882 5.13964 1.17383 3.19946 3.11401C1.25928 5.05419 0.167837 7.68469 0.164551 10.4285L0.164551 39.4069C0.167837 42.1507 1.25928 44.7812 3.19946 46.7214C5.13964 48.6616 7.77014 49.753 10.514 49.7563H33.9927C35.3524 49.7602 36.6994 49.4944 37.9557 48.9742C39.212 48.4541 40.3527 47.6899 41.3118 46.726L46.8094 41.2243C47.7734 40.2656 48.5378 39.1254 49.0583 37.8694C49.5788 36.6135 49.8451 35.2668 49.8418 33.9072V20.7345C49.8418 20.1855 49.6237 19.659 49.2355 19.2708C48.8473 18.8827 48.3209 18.6646 47.7719 18.6646ZM38.385 43.7992C37.5529 44.6292 36.5007 45.2038 35.3526 45.4551V37.337C35.3526 36.788 35.5707 36.2616 35.9588 35.8734C36.347 35.4852 36.8735 35.2671 37.4225 35.2671H45.5468C45.2907 36.4128 44.7168 37.4631 43.8909 38.2974L38.385 43.7992Z" fill="white"/>
</g>
<defs>
<clipPath id="clip0_450_62">
<rect width="49.6772" height="49.6772" fill="white" transform="translate(0.164551 0.0791016)"/>
</clipPath>
</defs>
</svg>
