<svg width="53" height="53" viewBox="0 0 53 53" fill="none" xmlns="http://www.w3.org/2000/svg">
<g id="fi-rr-book-alt" clip-path="url(#clip0_450_13)">
<path id="Vector" d="M48.8942 5.09481C47.681 4.08041 46.2594 3.34554 44.7303 2.94238C43.2012 2.53922 41.6021 2.47765 40.0465 2.76205L31.7988 4.25968C29.8946 4.60936 28.1632 5.58904 26.8829 7.04129C25.5993 5.58653 23.863 4.60663 21.9541 4.25968L13.7194 2.76205C12.1638 2.4774 10.5647 2.53816 9.03523 2.94003C7.50576 3.3419 6.08332 4.07505 4.86861 5.08759C3.65389 6.10013 2.67659 7.3673 2.00589 8.7994C1.33518 10.2315 0.987471 11.7935 0.987366 13.3749L0.987366 36.6658C0.98749 39.1924 1.87424 41.6388 3.49305 43.5786C5.11186 45.5184 7.36007 46.8286 9.84581 47.2808L23.4108 49.7474C25.7068 50.1646 28.0591 50.1646 30.3551 49.7474L43.9309 47.2808C46.4146 46.8264 48.6603 45.5152 50.277 43.5756C51.8936 41.636 52.7788 39.1908 52.7785 36.6658V13.3749C52.7795 11.7941 52.4319 10.2325 51.7605 8.80131C51.0891 7.37014 50.1105 6.1046 48.8942 5.09481ZM24.725 45.589C24.5437 45.5631 24.3624 45.5329 24.1812 45.5005L10.6184 43.0361C9.1267 42.7647 7.7776 41.9784 6.80629 40.8143C5.83498 39.6501 5.30307 38.182 5.30329 36.6658V13.3749C5.30329 11.6579 5.98536 10.0113 7.19945 8.79718C8.41354 7.58309 10.0602 6.90103 11.7772 6.90103C12.168 6.90196 12.5579 6.93734 12.9425 7.00677L21.1859 8.51734C22.1777 8.69883 23.0747 9.22185 23.7212 9.99564C24.3676 10.7694 24.7228 11.7451 24.725 12.7534V45.589ZM48.4626 36.6658C48.4628 38.182 47.9309 39.6501 46.9596 40.8143C45.9883 41.9784 44.6392 42.7647 43.1475 43.0361L29.5847 45.5005C29.4034 45.5329 29.2222 45.5631 29.0409 45.589V12.7534C29.0407 11.7427 29.3954 10.7639 30.0429 9.9878C30.6904 9.21169 31.5898 8.68748 32.5843 8.50655L40.8299 6.99598C41.7636 6.82608 42.7234 6.86359 43.6411 7.10584C44.5588 7.34809 45.4119 7.78916 46.1402 8.3978C46.8685 9.00645 47.454 9.76778 47.8554 10.6279C48.2567 11.488 48.464 12.4258 48.4626 13.3749V36.6658Z" fill="white"/>
</g>
<defs>
<clipPath id="clip0_450_13">
<rect width="51.7911" height="51.7911" fill="white" transform="translate(0.987366 0.427124)"/>
</clipPath>
</defs>
</svg>
