<svg width="54" height="53" viewBox="0 0 54 53" fill="none" xmlns="http://www.w3.org/2000/svg">
<g id="fi-rr-employees-woman-man" clip-path="url(#clip0_450_44)">
<path id="Vector" d="M17.7661 37.123C18.5677 38.0186 18.4774 39.3824 17.5614 40.1679C16.6497 40.9534 15.2581 40.8649 14.4543 39.9672L9.95563 34.9391C9.77287 34.7341 9.44917 34.6694 9.27742 34.8032C6.77153 36.7303 5.10021 38.9314 5.10021 43.4156V49.8895C5.10021 51.0807 4.11372 52.0475 2.89821 52.0475C1.6827 52.0475 0.696205 51.0807 0.696205 49.8895V43.4156C0.696205 36.7648 3.82966 33.5041 6.56234 31.4066C8.58819 29.8528 11.5301 30.1571 13.2674 32.0949L17.7661 37.123ZM9.8103 15.3427C9.84113 15.3427 9.86975 15.3427 9.8103 15.3427V15.3427ZM47.6143 31.3569C45.5753 29.8053 42.629 30.1312 40.9048 32.0906L38.1171 35.2585L35.2875 32.0949C33.5501 30.1571 30.6082 29.8528 28.5824 31.4066C25.8519 33.5041 22.7162 36.7648 22.7162 43.4156V49.8895C22.7162 51.0807 23.7027 52.0475 24.9183 52.0475C26.1338 52.0475 27.1203 51.0807 27.1203 49.8895V43.4156C27.1203 38.9314 28.7916 36.7303 31.2975 34.8032C31.4692 34.6716 31.7907 34.7363 31.9757 34.9391L36.4744 39.9672C36.8927 40.4355 37.4961 40.7031 38.1303 40.7031H38.1391C38.7777 40.7031 39.381 40.429 39.7972 39.9543L44.2386 34.9089C44.4192 34.7039 44.7407 34.6327 44.9169 34.7665C47.1123 36.4346 49.1403 38.6357 49.1403 43.4135V49.8874C49.1403 51.0786 50.1268 52.0453 51.3423 52.0453C52.5578 52.0453 53.5443 51.0786 53.5443 49.8874V43.4135C53.5443 36.7195 50.3756 33.4545 47.6143 31.3569ZM22.6722 23.3487C22.9144 24.5162 22.1437 25.6556 20.9502 25.8908C20.0849 26.0634 19.1974 26.1498 18.3122 26.1498C13.5339 26.1498 9.35228 23.6422 7.03137 19.9089C6.35095 22.9236 5.62209 26.1821 5.04957 28.7652C4.82496 29.7751 3.91333 30.4657 2.90041 30.4657C2.74627 30.4657 2.58773 30.4506 2.43138 30.4161C1.2423 30.1636 0.489217 29.0134 0.746851 27.8502C1.36782 25.047 4.49246 11.003 4.87781 9.82908C6.76933 4.104 12.1664 0.256348 18.3122 0.256348C22.1657 0.256348 25.7792 1.80577 28.4128 4.46222C30.8284 1.88561 34.2856 0.256348 38.1303 0.256348C45.4167 0.256348 51.3423 6.06343 51.3423 13.2041C51.3423 20.3448 45.4167 26.1519 38.1303 26.1519C30.8438 26.1519 24.9183 20.3448 24.9183 13.2041C24.9183 11.4389 25.2838 9.75786 25.9378 8.22355C25.3366 7.47474 24.6452 6.81656 23.8657 6.28354C22.703 9.11479 20.6794 11.5144 17.9863 13.161C15.606 14.6154 12.5496 15.3427 9.8103 15.3427C9.74864 15.3427 9.77947 15.3427 9.8103 15.3427C10.788 19.063 14.2121 21.8338 18.31 21.8338C18.9024 21.8338 19.4969 21.7756 20.076 21.6612C21.2629 21.4217 22.4322 22.1791 22.6722 23.3487ZM29.3223 13.202C29.3223 17.9624 33.2727 21.8338 38.1303 21.8338C42.9879 21.8338 46.9383 17.9624 46.9383 13.202C46.9383 8.44151 42.9879 4.57012 38.1303 4.57012C33.2727 4.57012 29.3223 8.44151 29.3223 13.202ZM9.15631 10.9534C11.4266 11.1735 13.6902 10.6987 15.6566 9.49675C17.5393 8.34655 18.9398 6.66334 19.7568 4.68881C19.2811 4.61975 18.8011 4.57228 18.3122 4.57228C14.1593 4.57228 10.5171 7.13378 9.15631 10.9555V10.9534Z" fill="white"/>
</g>
<defs>
<clipPath id="clip0_450_44">
<rect width="52.8481" height="51.7911" fill="white" transform="translate(0.696205 0.256348)"/>
</clipPath>
</defs>
</svg>
