<svg width="52" height="51" viewBox="0 0 52 51" fill="none" xmlns="http://www.w3.org/2000/svg">
<g id="fi-rr-calendar-lines-pen" clip-path="url(#clip0_450_65)">
<path id="Vector" d="M40.5633 4.4842H38.4494V2.37027C38.4494 1.20339 37.5023 0.256348 36.3354 0.256348C35.1686 0.256348 34.2215 1.20339 34.2215 2.37027V4.4842H17.3101V2.37027C17.3101 1.20339 16.3631 0.256348 15.1962 0.256348C14.0293 0.256348 13.0823 1.20339 13.0823 2.37027V4.4842H10.9684C5.14027 4.4842 0.398743 9.22573 0.398743 15.0538V40.4209C0.398743 46.249 5.14027 50.9905 10.9684 50.9905H19.4241C20.5909 50.9905 21.538 50.0435 21.538 48.8766C21.538 47.7097 20.5909 46.7627 19.4241 46.7627H10.9684C7.47193 46.7627 4.62659 43.9173 4.62659 40.4209V21.3956H49.019C50.1859 21.3956 51.1329 20.4486 51.1329 19.2817V15.0538C51.1329 9.22573 46.3914 4.4842 40.5633 4.4842ZM46.9051 17.1677H4.62659V15.0538C4.62659 11.5574 7.47193 8.71204 10.9684 8.71204H40.5633C44.0597 8.71204 46.9051 11.5574 46.9051 15.0538V17.1677ZM40.3075 27.4816L28.2433 39.5457C26.6473 41.1418 25.7658 43.2663 25.7658 45.526V48.8787C25.7658 50.0456 26.7129 50.9926 27.8798 50.9926H31.2324C33.4922 50.9926 35.6146 50.1111 37.2106 48.5151L49.2748 36.451C50.4734 35.2524 51.1329 33.6606 51.1329 31.9652C51.1329 30.2698 50.4734 28.6781 49.2769 27.4816C46.8797 25.0844 42.7026 25.0844 40.3075 27.4816ZM46.2857 33.4598L34.2194 45.5239C33.4225 46.323 32.3613 46.7627 31.2303 46.7627H29.9916V45.5239C29.9916 44.3951 30.4313 43.3339 31.2303 42.5348L43.2966 30.4707C44.0936 29.6716 45.4866 29.6716 46.2857 30.4707C46.6852 30.8681 46.9051 31.3987 46.9051 31.9652C46.9051 32.5317 46.6852 33.0602 46.2857 33.4598ZM10.9684 29.8513C10.9684 28.6844 11.9154 27.7374 13.0823 27.7374H27.8798C29.0466 27.7374 29.9937 28.6844 29.9937 29.8513C29.9937 31.0182 29.0466 31.9652 27.8798 31.9652H13.0823C11.9154 31.9652 10.9684 31.0182 10.9684 29.8513ZM23.6519 38.307C23.6519 39.4739 22.7049 40.4209 21.538 40.4209H13.0823C11.9154 40.4209 10.9684 39.4739 10.9684 38.307C10.9684 37.1401 11.9154 36.1931 13.0823 36.1931H21.538C22.7049 36.1931 23.6519 37.1401 23.6519 38.307Z" fill="white"/>
</g>
<defs>
<clipPath id="clip0_450_65">
<rect width="50.7342" height="50.7342" fill="white" transform="translate(0.398743 0.256348)"/>
</clipPath>
</defs>
</svg>
